<?xml version="1.0" standalone="no"?>
<!DOCTYPE svg PUBLIC "-//W3C//DTD SVG 20010904//EN"
 "http://www.w3.org/TR/2001/REC-SVG-20010904/DTD/svg10.dtd">
<svg version="1.0" xmlns="http://www.w3.org/2000/svg"
 width="720.000000pt" height="720.000000pt" viewBox="0 0 720.000000 720.000000"
 preserveAspectRatio="xMidYMid meet">
<metadata>
Created by potrace 1.14, written by Peter Selinger 2001-2017
</metadata>
<g transform="translate(0.000000,720.000000) scale(0.100000,-0.100000)"
fill="#000000" stroke="none">
<path d="M3420 6658 c-47 -4 -114 -10 -150 -12 -36 -2 -81 -7 -100 -10 -19 -3
-69 -10 -110 -16 -85 -11 -157 -24 -245 -45 -33 -7 -76 -16 -95 -19 -42 -6
-97 -32 -128 -61 -19 -18 -34 -21 -79 -19 -31 1 -67 -2 -80 -7 -13 -5 -38 -11
-56 -14 -17 -4 -34 -10 -37 -14 -5 -8 -38 -23 -55 -26 -11 -1 -27 -8 -92 -36
-23 -11 -47 -19 -52 -19 -6 0 -11 -4 -11 -9 0 -5 -13 -12 -30 -16 -17 -4 -30
-11 -30 -16 0 -6 -5 -7 -11 -3 -6 3 -14 3 -18 -2 -3 -5 -60 -36 -126 -69 -66
-33 -122 -63 -125 -66 -3 -3 -42 -27 -88 -54 -46 -27 -86 -53 -90 -59 -4 -6
-20 -17 -35 -24 -32 -14 -108 -71 -120 -89 -4 -7 -14 -13 -21 -13 -7 0 -27
-12 -43 -27 -17 -16 -47 -43 -67 -61 -20 -18 -36 -29 -36 -25 0 5 -16 -9 -35
-31 -19 -21 -35 -36 -35 -33 0 15 -265 -245 -309 -303 -14 -19 -29 -37 -32
-40 -14 -11 -32 -56 -36 -89 -6 -45 -21 -73 -34 -65 -16 9 -118 -63 -132 -94
-7 -15 -19 -34 -27 -44 -29 -32 -40 -47 -40 -53 0 -4 -11 -21 -24 -38 -13 -18
-32 -48 -43 -67 -10 -19 -31 -54 -46 -77 -15 -24 -27 -47 -27 -53 0 -5 -3 -10
-8 -10 -7 0 -46 -66 -47 -79 -1 -3 -14 -31 -30 -61 -16 -30 -29 -57 -30 -60 0
-3 -7 -16 -15 -30 -8 -14 -15 -27 -15 -30 -3 -10 -28 -69 -72 -167 -9 -21 -16
-44 -16 -50 0 -7 -4 -13 -9 -13 -5 0 -7 -4 -3 -9 3 -5 1 -12 -4 -15 -4 -3 -12
-20 -16 -38 -4 -18 -9 -35 -10 -38 -1 -3 -7 -18 -13 -33 -7 -16 -12 -34 -12
-41 0 -7 -3 -16 -7 -20 -5 -4 -14 -31 -21 -59 -17 -71 -18 -76 -33 -127 -7
-25 -14 -52 -16 -60 -1 -8 -9 -47 -17 -86 -9 -40 -13 -98 -11 -130 3 -46 0
-69 -17 -103 -23 -49 -23 -44 -38 -231 -14 -170 -10 -1297 5 -1308 6 -4 10
-14 10 -22 0 -8 -4 -18 -10 -22 -6 -5 -10 -210 -10 -580 l0 -573 33 -67 c18
-38 38 -68 43 -68 6 0 8 -4 5 -9 -9 -14 70 -85 124 -112 27 -13 50 -27 50 -31
0 -5 11 -8 24 -8 14 0 27 -4 31 -10 3 -6 324 -9 850 -10 864 0 885 1 908 37 4
7 14 13 22 13 8 0 20 10 26 22 7 13 18 29 25 36 31 31 34 95 34 712 -1 521 -3
626 -15 644 -12 18 -12 26 -1 47 8 16 13 71 15 154 2 126 17 323 27 356 2 10
6 30 9 45 2 16 13 58 24 93 12 35 21 67 21 71 0 5 10 30 22 57 12 26 22 50 24
53 1 3 5 15 9 28 4 12 11 22 16 22 5 0 8 3 8 8 -3 12 23 72 30 72 8 0 35 51
31 59 -1 2 2 7 7 10 5 3 23 27 41 52 39 58 64 88 127 154 28 28 56 64 63 78 6
15 17 38 23 51 7 14 9 34 6 45 -5 19 -1 21 48 21 30 0 57 5 60 10 4 6 10 8 15
5 10 -6 74 20 98 40 9 8 19 14 22 13 3 -1 23 10 45 23 36 22 92 51 105 54 22
5 87 29 95 35 6 5 27 11 49 14 21 4 43 9 50 13 13 9 12 8 91 23 33 6 83 13
110 16 28 2 72 9 98 14 31 7 63 6 92 0 24 -5 68 -12 97 -14 84 -7 192 -27 203
-37 5 -5 20 -9 35 -9 14 0 38 -7 54 -15 16 -9 36 -13 43 -11 7 3 13 2 13 -2 0
-8 61 -37 100 -48 14 -4 27 -9 30 -13 3 -3 26 -17 53 -31 26 -13 47 -28 47
-32 0 -5 4 -8 9 -8 5 0 22 -5 38 -12 41 -17 52 -19 115 -25 l56 -5 7 -44 c3
-24 10 -46 16 -49 5 -4 7 -11 4 -16 -4 -5 -2 -9 3 -9 5 0 13 -9 18 -19 5 -11
32 -44 59 -73 60 -63 145 -174 145 -188 0 -6 5 -10 10 -10 6 0 10 -7 10 -15 0
-8 5 -15 12 -15 6 0 9 -3 5 -6 -3 -3 5 -24 19 -45 13 -21 24 -41 24 -44 0 -2
12 -30 27 -62 15 -32 27 -60 28 -63 0 -3 3 -9 6 -15 4 -5 10 -26 14 -45 4 -19
10 -39 14 -45 3 -5 6 -12 6 -15 1 -3 7 -32 15 -65 20 -86 19 -81 30 -195 5
-58 10 -163 11 -235 1 -90 5 -136 15 -149 9 -13 10 -25 4 -36 -5 -10 -6 -20
-3 -24 3 -3 1 -6 -5 -6 -9 0 -12 -164 -12 -643 0 -545 3 -646 15 -664 8 -11
12 -23 8 -26 -3 -4 2 -9 11 -13 9 -3 16 -13 16 -20 0 -8 8 -18 18 -21 9 -4 24
-14 32 -23 38 -40 40 -40 915 -40 533 1 846 4 850 10 3 6 17 10 31 10 13 0 24
5 24 10 0 6 7 10 15 10 8 0 15 5 15 12 0 6 3 9 6 5 6 -6 44 15 86 49 27 21 98
125 98 144 0 5 4 10 8 10 26 0 32 119 32 636 0 453 -2 539 -15 564 -13 25 -13
32 0 57 13 24 15 116 14 633 -1 333 -5 641 -10 685 -4 44 -9 98 -10 120 -1 22
-6 45 -10 50 -4 6 -7 12 -7 15 2 14 -15 50 -23 50 -5 0 -7 33 -5 78 3 61 -9
164 -24 202 -1 3 -2 9 -1 13 1 4 -6 29 -15 56 -8 26 -17 54 -18 62 -1 8 -9 34
-16 59 -8 25 -14 47 -15 50 -9 37 -39 127 -45 135 -6 8 -33 79 -35 95 -3 20
-41 106 -49 112 -6 4 -7 8 -2 8 5 0 3 7 -4 15 -7 8 -10 15 -6 15 3 0 -23 57
-58 128 -35 70 -66 135 -69 145 -4 9 -11 17 -17 17 -5 0 -10 9 -10 19 0 11 -3
21 -7 23 -10 4 -42 57 -50 81 -3 9 -9 17 -14 17 -5 0 -9 5 -9 10 0 16 -130
210 -141 210 -5 0 -8 3 -7 8 8 28 -107 120 -136 109 -14 -6 -18 4 -30 74 -4
26 -21 61 -41 85 -5 7 -23 29 -40 50 -51 62 -247 253 -267 260 -10 3 -16 10
-13 15 4 5 2 9 -2 9 -5 0 -25 15 -45 33 -81 72 -120 102 -128 100 -5 -2 -12 6
-15 17 -4 11 -12 20 -19 20 -7 0 -26 11 -42 25 -41 36 -44 38 -110 81 -32 21
-61 42 -64 46 -3 4 -17 12 -30 18 -14 5 -37 18 -52 28 -66 43 -168 100 -215
123 -29 13 -53 27 -53 31 0 5 -6 8 -13 8 -7 0 -48 18 -92 40 -44 22 -88 40
-97 40 -10 0 -18 4 -18 10 0 5 -16 12 -35 16 -19 3 -38 10 -41 15 -3 5 -9 7
-14 4 -5 -3 -11 -1 -15 5 -3 5 -15 10 -25 10 -10 0 -20 5 -22 11 -5 15 -124
37 -171 32 -27 -3 -42 2 -63 22 -15 14 -38 28 -51 31 -13 4 -23 10 -23 15 0 5
-10 9 -22 8 -13 0 -52 7 -88 15 -146 36 -384 76 -485 81 -22 2 -78 6 -125 9
-124 11 -303 12 -400 4z m485 -253 c33 -2 92 -9 130 -15 39 -7 84 -13 100 -15
17 -3 53 -9 80 -15 28 -6 59 -13 70 -14 64 -9 142 -30 156 -43 15 -13 17 -63
15 -516 l-1 -502 -849 0 -849 0 -1 513 -1 513 35 8 c79 20 96 24 120 26 14 2
48 8 75 14 28 7 64 13 80 16 17 2 59 8 95 14 36 6 107 13 159 16 52 3 97 8
100 11 6 6 356 -2 486 -11z m-1405 -647 l-5 -473 -702 -1 -702 0 25 30 c67 84
82 100 114 122 19 13 31 24 26 24 -10 0 34 42 80 77 16 12 50 41 75 65 70 65
98 88 125 100 13 6 24 14 24 18 0 4 28 27 63 51 64 45 78 55 102 77 7 6 18 12
24 12 6 0 11 5 11 10 0 6 5 10 11 10 6 0 31 14 56 30 24 17 46 30 50 30 3 0
25 14 50 30 24 17 49 30 55 30 6 0 32 13 57 28 25 16 69 39 96 51 99 45 120
56 123 64 2 4 8 5 12 2 5 -3 17 -1 27 4 10 6 41 20 68 31 28 12 59 25 70 30
26 11 48 18 60 19 7 1 8 -160 5 -471z m2265 452 c11 -5 38 -16 60 -25 22 -9
58 -25 81 -36 23 -10 47 -19 54 -19 7 0 35 -13 62 -30 26 -16 53 -30 59 -30 6
0 38 -16 70 -36 32 -19 63 -33 69 -29 5 3 10 1 10 -4 0 -6 7 -11 15 -11 8 0
15 -3 15 -8 0 -4 21 -19 48 -32 26 -14 49 -27 52 -30 14 -14 70 -50 78 -50 5
0 15 -7 22 -15 7 -9 15 -14 17 -11 2 2 19 -11 37 -29 18 -18 42 -35 52 -39 11
-3 34 -19 52 -36 18 -16 42 -35 54 -41 23 -12 60 -43 127 -106 24 -23 49 -39
54 -36 6 3 7 2 4 -4 -5 -8 25 -43 38 -43 6 0 130 -126 187 -189 l37 -41 -705
0 c-664 0 -704 1 -704 18 -1 25 -1 916 -1 924 1 7 19 3 56 -12z m-3155 -1185
c16 -10 14 -1302 -2 -1307 -7 -2 -300 -3 -651 -2 -681 1 -666 -1 -647 48 9 21
23 72 25 91 4 22 17 71 25 90 5 11 12 36 16 55 11 60 47 161 109 315 5 11 9
22 10 25 1 3 8 19 15 35 7 17 14 32 14 35 1 3 14 31 29 62 15 31 27 62 27 67
0 6 4 11 9 11 5 0 12 13 16 29 3 16 13 35 21 42 8 6 14 17 14 23 0 7 25 51 55
100 30 48 55 91 55 97 0 5 5 9 10 9 6 0 10 6 10 13 0 7 7 22 15 32 8 11 33 45
55 75 34 46 46 56 78 60 53 7 679 3 692 -5z m1848 5 c9 0 12 -114 12 -534 l0
-533 -57 -6 c-97 -11 -227 -34 -258 -47 -11 -4 -51 -18 -90 -30 -38 -13 -102
-38 -141 -56 -39 -19 -76 -34 -82 -34 -7 0 -12 -4 -12 -10 0 -5 -5 -10 -11
-10 -7 0 -34 -14 -61 -30 l-49 -30 -414 2 -415 3 0 653 c0 359 2 656 4 660 3
5 1424 7 1574 2z m1858 -3 c3 -3 6 -1085 4 -1304 0 -5 -186 -7 -412 -7 -369 1
-417 3 -453 19 -22 10 -42 16 -44 15 -2 -1 -7 3 -10 8 -10 15 -114 69 -149 77
-18 3 -32 11 -32 16 0 5 -7 9 -15 9 -9 0 -29 7 -45 15 -16 8 -46 18 -67 21
-21 3 -43 10 -49 15 -6 5 -28 11 -50 14 -21 3 -52 9 -69 12 -42 8 -71 13 -137
20 l-58 6 0 523 c0 287 2 528 5 536 4 11 145 13 791 11 432 -1 788 -4 790 -6z
m996 3 c4 0 25 -26 47 -57 22 -32 45 -63 50 -69 5 -6 12 -20 15 -32 4 -13 12
-19 18 -16 7 4 8 2 4 -4 -4 -6 2 -20 14 -32 11 -11 18 -20 16 -20 -3 0 20 -42
50 -92 30 -51 60 -107 66 -125 7 -18 16 -33 20 -33 4 0 8 -5 8 -12 0 -6 13
-39 29 -72 16 -34 36 -77 44 -96 42 -97 57 -133 57 -140 0 -4 8 -25 17 -46 9
-22 18 -47 20 -57 2 -9 12 -44 23 -77 11 -33 20 -68 20 -79 0 -11 4 -22 9 -25
5 -3 11 -20 15 -38 10 -53 13 -70 28 -124 8 -28 12 -56 10 -62 -3 -9 -166 -12
-658 -12 l-654 0 2 657 3 657 23 6 c17 3 630 4 704 0z m-5392 -1617 c1 -63 1
-1166 0 -1220 l0 -43 -340 0 c-317 0 -340 1 -341 18 0 9 -1 240 -1 512 0 500
5 674 23 743 l10 37 324 0 325 0 0 -47z m1480 42 c0 -3 -10 -16 -23 -28 -13
-12 -35 -39 -49 -59 -13 -21 -27 -36 -29 -34 -2 2 -13 -8 -23 -22 -12 -15 -14
-22 -5 -17 8 5 -3 -8 -24 -29 -20 -22 -35 -41 -33 -44 3 -2 -10 -26 -29 -52
-19 -26 -31 -51 -28 -54 4 -3 2 -6 -4 -6 -10 0 -67 -117 -88 -180 -1 -3 -7
-18 -13 -33 -14 -33 -42 -118 -46 -138 -2 -8 -6 -21 -9 -29 -29 -75 -57 -304
-57 -473 l0 -117 -382 2 -383 3 -3 645 c-1 355 0 651 3 658 3 9 136 12 615 12
335 0 610 -2 610 -5z m3625 -650 l0 -650 -382 -3 -383 -2 0 112 c-1 96 -10
223 -24 328 -8 60 -43 198 -63 250 -4 8 -7 17 -8 20 -6 22 -20 61 -35 95 -9
22 -23 55 -31 73 -8 17 -18 32 -22 32 -5 0 -5 5 -2 10 3 6 1 10 -5 10 -6 0 -8
5 -5 10 3 6 1 10 -4 10 -6 0 -11 6 -11 13 0 15 -58 108 -75 119 -5 4 -6 8 -1
8 4 0 -9 21 -30 48 -21 26 -43 53 -49 60 -5 7 -29 33 -52 58 -24 25 -43 47
-43 50 0 2 276 3 613 2 l612 -3 0 -650z m913 618 c11 -37 23 -239 22 -373 -1
-36 -1 -96 0 -135 0 -38 0 -95 -1 -125 -1 -63 -1 -59 0 -182 0 -51 0 -176 -2
-278 l-2 -185 -337 -3 c-317 -2 -338 -1 -338 15 -1 23 -1 1274 0 1291 0 9 72
12 323 12 l324 0 11 -37z m-5000 -2090 l-3 -558 -775 0 -776 0 -47 25 c-38 20
-53 36 -74 78 l-26 53 1 467 c0 257 1 473 1 480 1 9 178 12 851 12 l850 0 -2
-557z m5018 546 c3 -6 6 -37 4 -68 -1 -31 -1 -63 -1 -71 0 -8 0 -62 0 -120 0
-58 0 -109 0 -115 1 -144 1 -186 0 -215 0 -19 0 -69 1 -110 1 -41 1 -100 0
-130 -1 -30 -1 -59 1 -65 6 -21 -13 -104 -26 -115 -8 -7 -15 -19 -15 -26 0 -8
-4 -14 -8 -14 -5 0 -18 -9 -30 -20 -12 -12 -22 -18 -22 -14 0 3 -7 0 -17 -7
-13 -12 -150 -14 -797 -14 l-781 0 -3 558 -2 557 844 0 c610 0 847 -3 852 -11z"/>
<path d="M3420 3420 c-8 -5 -27 -10 -42 -10 -15 0 -29 -4 -32 -9 -3 -5 -15 -7
-26 -4 -11 3 -26 1 -33 -4 -6 -6 -26 -13 -43 -16 -40 -8 -114 -39 -114 -49 0
-4 -7 -5 -15 -2 -8 4 -15 1 -15 -5 0 -6 -7 -11 -15 -11 -8 0 -15 -5 -15 -11 0
-5 -4 -7 -10 -4 -5 3 -10 2 -10 -3 0 -6 -10 -12 -23 -16 -26 -6 -122 -74 -173
-122 -18 -17 -35 -29 -38 -27 -2 3 -7 -5 -11 -16 -3 -12 -9 -20 -13 -18 -4 2
-15 -4 -24 -15 -10 -10 -16 -18 -13 -18 3 0 -13 -16 -35 -36 -22 -20 -38 -40
-35 -44 3 -5 -5 -16 -17 -25 -13 -8 -23 -19 -23 -24 0 -5 -12 -23 -28 -40 -15
-17 -24 -31 -21 -31 4 0 1 -7 -6 -15 -7 -8 -9 -15 -6 -15 4 0 -2 -10 -14 -22
-11 -12 -20 -27 -20 -33 0 -6 -5 -16 -12 -23 -6 -6 -13 -17 -14 -24 -1 -7 -13
-39 -28 -70 -14 -31 -26 -63 -26 -70 0 -8 -4 -18 -9 -23 -5 -6 -14 -32 -20
-60 -6 -27 -14 -59 -16 -70 -27 -108 -29 -177 -30 -980 l-2 -840 22 -32 c13
-18 25 -29 28 -26 4 3 9 -2 13 -11 7 -19 67 -22 111 -5 33 12 66 45 68 68 1 9
5 23 9 31 3 8 8 384 10 835 1 451 6 834 10 850 3 17 8 41 10 55 2 14 11 45 19
69 9 25 14 48 11 53 -3 4 0 8 5 8 6 0 11 9 11 20 0 11 5 20 11 20 6 0 9 6 7
12 -3 7 10 38 29 70 18 31 33 61 33 66 0 5 7 13 16 16 9 4 14 9 11 12 -7 7 21
41 109 131 39 40 69 75 67 76 -2 2 8 10 22 17 14 7 25 17 25 22 0 4 5 8 11 8
6 0 17 6 24 13 31 27 50 42 50 39 0 -1 15 2 32 9 20 7 30 15 26 22 -3 7 -3 9
1 5 10 -8 66 11 66 23 0 5 9 9 19 9 11 0 23 5 26 10 4 6 11 8 16 5 5 -4 15 -3
22 2 6 4 17 8 22 10 6 1 33 7 60 13 65 14 274 14 345 0 30 -6 60 -12 65 -14 6
-1 15 -4 20 -7 14 -8 68 -23 78 -21 4 1 7 -2 7 -7 0 -5 13 -12 29 -16 16 -3
51 -22 78 -41 26 -19 53 -34 59 -34 5 0 23 -13 39 -30 15 -16 31 -28 34 -26 3
2 24 -18 46 -44 22 -26 50 -54 62 -61 13 -7 21 -14 18 -17 -2 -2 1 -10 8 -17
26 -27 57 -65 58 -73 1 -4 14 -25 29 -47 15 -22 30 -52 34 -67 3 -15 14 -34
24 -44 9 -10 16 -20 16 -23 -1 -3 2 -16 7 -29 5 -13 9 -28 9 -33 0 -5 4 -17 9
-27 8 -15 19 -52 26 -87 1 -5 3 -12 5 -15 10 -19 13 -180 19 -911 5 -678 8
-829 20 -842 7 -10 10 -17 5 -17 -11 0 27 -35 55 -49 12 -7 41 -11 64 -10 33
2 49 10 74 37 17 20 33 46 36 58 10 55 -1 1671 -12 1729 -6 33 -13 69 -15 80
-1 11 -9 40 -16 65 -7 25 -13 49 -11 54 1 4 -2 13 -7 20 -5 6 -15 32 -23 59
-7 26 -16 47 -20 47 -4 0 -10 10 -14 23 -4 12 -8 24 -9 27 -10 26 -61 116 -67
118 -5 2 -9 8 -9 13 0 11 -42 72 -52 77 -5 2 -8 9 -8 16 0 7 -10 22 -22 33
-13 11 -49 50 -82 87 -32 36 -61 64 -65 62 -3 -2 -12 2 -19 10 -7 8 -9 14 -5
14 4 0 -9 11 -28 25 -19 13 -38 28 -44 32 -24 19 -70 46 -72 42 -1 -2 -12 6
-25 18 -13 12 -35 25 -50 28 -16 4 -28 11 -28 16 0 5 -6 9 -13 9 -7 0 -28 8
-47 19 -19 10 -52 21 -74 25 -21 4 -46 11 -55 16 -52 29 -455 53 -491 30z"/>
</g>
</svg>
